<svg width="684" height="403" viewBox="0 0 684 403" fill="none" xmlns="http://www.w3.org/2000/svg">
<path d="M483.364 273.072H483.121C482.964 274.14 481.597 275.207 479.055 276.275L469.804 279.981C467.176 281.037 465.157 282.543 463.761 284.477C462.364 286.409 461.656 288.811 461.656 291.691C461.656 292.921 461.792 294.196 462.029 295.513C462.28 296.829 462.731 298.001 463.389 299.032C464.048 300.055 464.976 300.897 466.157 301.551C467.353 302.216 468.891 302.539 470.785 302.539C473.499 302.539 475.695 301.972 477.389 300.82C479.067 299.667 480.341 298.227 481.208 296.501C482.073 294.783 482.657 292.909 482.939 290.884C483.227 288.879 483.364 287.049 483.364 285.403V273.072ZM504.953 301.928C503.892 302.752 502.612 303.472 501.136 304.087C499.641 304.704 497.836 305.008 495.703 305.008C491.757 305.008 488.891 304.171 487.128 302.491C485.355 300.805 484.147 298.428 483.488 295.392H483.244C482.921 296.128 482.463 297.061 481.884 298.167C481.305 299.271 480.433 300.349 479.237 301.373C478.043 302.404 476.457 303.259 474.488 303.965C472.517 304.659 470.005 305.008 466.963 305.008C463.511 305.008 460.763 304.617 458.7 303.843C456.651 303.063 455.048 302.095 453.883 300.941C452.736 299.789 451.987 298.503 451.607 297.061C451.237 295.625 451.059 294.283 451.059 293.049C451.059 290.172 451.633 287.867 452.785 286.141C453.925 284.415 455.431 283.029 457.291 282.007C459.133 280.983 461.195 280.14 463.456 279.489C465.707 278.829 467.993 278.135 470.299 277.391C473.011 276.483 475.244 275.707 477.012 275.041C478.78 274.379 480.157 273.575 481.147 272.64C482.128 271.687 482.805 270.5 483.183 269.06C483.549 267.621 483.744 265.671 483.744 263.2C483.744 261.231 483.611 259.468 483.364 257.901C483.121 256.339 482.671 255.004 482.008 253.889C481.353 252.777 480.401 251.936 479.177 251.363C477.94 250.789 476.292 250.497 474.237 250.497C471.536 250.497 469.287 250.973 467.517 251.917C465.756 252.859 464.872 254.399 464.872 256.547C464.872 257.949 464.992 259.316 465.236 260.676C465.487 262.029 465.603 263.036 465.603 263.701C465.603 264.848 465.195 265.816 464.372 266.591C463.555 267.379 462.364 267.767 460.804 267.767C458.072 267.767 456.395 267.267 455.743 266.292C455.084 265.303 454.755 264.023 454.755 262.464C454.755 260.657 455.164 258.925 455.985 257.285C456.815 255.644 458.023 254.175 459.633 252.9C461.237 251.625 463.243 250.619 465.671 249.877C468.096 249.145 470.865 248.779 473.993 248.779C477.775 248.779 480.952 249.235 483.488 250.187C486.037 251.137 488.099 252.412 489.66 254.011C491.22 255.615 492.331 257.42 492.988 259.439C493.647 261.464 493.971 263.579 493.971 265.792V296.501C493.971 298.891 494.355 300.488 495.087 301.307C495.829 302.136 496.897 302.539 498.295 302.539C499.195 302.539 500.148 302.379 501.136 302.051C502.111 301.713 503.064 301.233 503.971 300.576L504.953 301.928Z" fill="#171717"/>
<path d="M311.433 266.293C311.015 256.128 306.512 251.043 297.928 251.043C289.449 251.043 282.712 256.128 280.62 266.293H311.433ZM320.593 295.137C320.593 295.137 316.929 298.392 315.335 299.683C310.719 303.173 305.996 305.008 298.819 305.008C289.845 305.008 282.343 302.387 276.312 297.141C270.277 291.897 267.263 285.401 267.263 277.655C267.263 269.588 270.128 262.849 275.863 257.443C281.595 252.039 288.748 249.335 297.324 249.335C304.4 249.335 310.333 251.009 315.119 254.357C319.904 257.707 322.447 262.791 322.747 268.035C319.605 268.005 280.171 268.092 280.171 268.092C280.171 268.092 279.423 273.279 279.423 275.691C279.423 283.811 281.341 290.061 285.18 294.443C289.016 298.825 295.704 301.947 302.683 301.947C306.669 301.947 309.943 300.721 312.285 299.189C317.596 295.716 319.163 293.912 319.163 293.912L320.593 295.137Z" fill="#171717"/>
<path d="M429.875 266.293C429.456 256.128 424.953 251.043 416.369 251.043C407.891 251.043 401.153 256.128 399.061 266.293H429.875ZM439.033 295.137C439.033 295.137 435.371 298.392 433.776 299.683C429.16 303.173 424.437 305.008 417.26 305.008C408.287 305.008 400.784 302.387 394.753 297.141C388.719 291.897 385.704 285.401 385.704 277.655C385.704 269.588 388.569 262.849 394.304 257.443C400.036 252.039 407.189 249.335 415.765 249.335C422.841 249.335 428.775 251.009 433.56 254.357C438.345 257.707 440.888 262.791 441.188 268.035C438.047 268.005 398.612 268.092 398.612 268.092C398.612 268.092 397.864 273.279 397.864 275.691C397.864 283.811 399.783 290.061 403.621 294.443C407.457 298.825 414.145 301.947 421.124 301.947C425.111 301.947 428.384 300.721 430.727 299.189C436.037 295.716 437.604 293.912 437.604 293.912L439.033 295.137Z" fill="#171717"/>
<path d="M604.948 299.189C602.605 300.721 599.332 301.947 595.347 301.947C590.175 301.947 585.171 300.228 581.361 297.557C581.285 297.504 578.872 295.819 577.375 293.776C573.976 289.141 572.199 283.165 572.199 274.613C572.199 267.031 574.355 261.063 577.647 256.867C580.936 252.672 586.1 250.648 592.083 250.648C595.172 250.648 597.887 251.175 599.931 252.223C601.973 253.272 602.997 254.604 602.997 256.216C602.997 256.783 602.847 257.347 602.548 257.912C601.549 259.687 601.052 261.017 601.052 261.904C601.052 265.293 603.244 266.988 607.632 266.988C612.119 266.988 614.361 265.132 614.361 261.42C614.361 258.113 612.095 255.209 607.557 252.707C603.02 250.207 597.812 248.955 591.931 248.955C587.753 248.955 583.915 249.549 580.38 250.677C575.921 251.968 571.96 254.205 568.527 257.443C562.792 262.849 559.925 269.588 559.925 277.655C559.925 277.672 559.928 277.688 559.928 277.705C559.928 277.724 559.925 277.741 559.925 277.76C559.925 285.505 562.792 291.92 568.527 297.003C571.46 299.607 574.8 301.533 578.532 302.803C582.444 304.26 586.753 305.008 591.481 305.008C598.66 305.008 603.381 303.173 607.997 299.683C609.592 298.392 613.256 295.137 613.256 295.137L611.825 293.912C611.825 293.912 610.26 295.716 604.948 299.189Z" fill="#171717"/>
<path d="M371.796 277.836C369.005 275.655 362.424 272.905 352.056 269.588C345.376 267.484 342.037 264.411 342.037 260.369C342.037 257.783 343.133 255.637 345.327 253.939C347.519 252.24 350.311 251.135 353.701 251.135C357.291 251.135 360.757 251.331 364.435 253.101C368.157 254.893 369.712 256.988 369.769 260.469V264.813H371.155C371.243 264.915 371.28 264.932 371.199 264.827C371.197 264.824 371.196 264.816 371.195 264.813H371.493V247.519H369.769V249.408C369.629 251.645 369.141 252.9 365.932 251.807C365.183 251.552 363.311 250.892 362.323 250.649C358.367 249.681 355.82 249.335 353.844 249.335C348.304 249.335 343.653 250.872 339.896 253.945C336.139 257.017 334.259 260.819 334.259 265.347C334.259 272.139 339.793 277.233 350.861 280.631C356.443 282.328 359.807 283.4 360.955 283.844C362.1 284.291 363.371 285.039 364.768 286.089C367.259 287.951 368.507 290.456 368.507 293.611C368.507 296.441 367.409 298.705 365.217 300.403C363.021 302.101 360.132 302.951 356.543 302.951C349.863 302.951 344.528 300.837 340.54 296.609C338.557 294.509 336.516 291.287 336.528 287.453V286.469H334.804V305.008H336.528V303.747C336.649 301.964 338.669 301.256 340.052 301.256C341.04 301.256 342.179 301.54 343.469 302.103C348.32 304.039 352.428 305.008 355.796 305.008C361.637 305.008 366.66 303.369 370.868 300.095C375.075 296.82 377.18 292.836 377.18 288.148C377.18 284.104 375.385 280.668 371.796 277.836Z" fill="#171717"/>
<path d="M675.761 302.06V270.272C675.761 265.996 675.665 263.295 675.476 262.163C675.096 258.937 674.097 255.285 672.485 253.509C669.257 249.96 663.845 248.185 656.252 248.185C649.035 248.185 643.34 251.48 639.164 256.643V217.248H636.607C635.965 218.001 633.128 221.891 623.684 221.909H617.559V223.647H628.712V302.06H619.343V303.797H649.169V302.06H639.315L639.591 265.763C639.591 261.901 640.064 258.255 641.015 257.127C643.863 253.667 647.88 251.535 652.437 251.535C657.943 251.535 661.185 253.787 662.801 257.489C663.56 259.263 663.941 264.96 663.941 272.285V302.06H655.571V303.797H683.899V302.06H675.761Z" fill="#171717"/>
<path d="M261.856 256.061C261.455 254.823 260.784 253.739 259.881 252.8C258.984 251.849 257.831 251.08 256.429 250.452C255.032 249.843 253.393 249.532 251.491 249.532C248.868 249.532 246.631 250.02 244.776 251.007C242.928 252 241.343 253.208 240.032 254.641C238.716 256.08 237.684 257.587 236.952 259.148C236.203 260.716 235.672 262.105 235.344 263.339H235.092V250.885H215.245V252.591H224.771V302.055H224.732V302.06H215.593V303.797H244.535V302.06H235.344V273.825C235.344 270.368 235.776 267.3 236.636 264.636C237.496 261.972 238.575 259.677 239.844 257.795C241.117 255.892 242.503 254.451 243.979 253.476C245.455 252.481 246.856 252 248.175 252C251.047 252 252.484 253.312 252.484 255.933C252.484 257.015 252.405 257.831 252.24 258.409C252.076 258.984 251.885 259.496 251.685 259.947C251.479 260.399 251.289 260.86 251.125 261.307C250.965 261.751 250.881 262.356 250.881 263.08C250.881 265.397 252.685 266.549 256.307 266.549C257.955 266.549 259.395 266.093 260.631 265.185C261.856 264.289 262.479 262.472 262.479 259.759C262.479 258.532 262.271 257.299 261.856 256.061Z" fill="#171717"/>
<path d="M554.519 256.061C554.117 254.823 553.448 253.739 552.544 252.8C551.647 251.849 550.495 251.08 549.092 250.452C547.695 249.843 546.057 249.532 544.153 249.532C541.531 249.532 539.293 250.02 537.439 251.007C535.592 252 534.005 253.208 532.695 254.641C531.379 256.08 530.347 257.587 529.616 259.148C528.865 260.716 528.335 262.105 528.007 263.339H527.756V250.885H507.908V252.591H517.435V302.055H517.396V302.06H508.256V303.797H537.197V302.06H528.007V273.825C528.007 270.368 528.439 267.3 529.299 264.636C530.159 261.972 531.237 259.677 532.507 257.795C533.781 255.892 535.165 254.451 536.641 253.476C538.117 252.481 539.519 252 540.837 252C543.709 252 545.147 253.312 545.147 255.933C545.147 257.015 545.068 257.831 544.904 258.409C544.739 258.984 544.549 259.496 544.349 259.947C544.141 260.399 543.953 260.86 543.788 261.307C543.629 261.751 543.544 262.356 543.544 263.08C543.544 265.397 545.349 266.549 548.969 266.549C550.617 266.549 552.057 266.093 553.295 265.185C554.519 264.289 555.141 262.472 555.141 259.759C555.141 258.532 554.933 257.299 554.519 256.061Z" fill="#171717"/>
<path d="M215.245 202.973H224.74V153.523H215.245V151.797H235.099V164.744H235.348C237.075 159.811 239.564 156.195 242.812 153.896C246.056 151.597 249.991 150.444 254.595 150.444C258.699 150.444 262.333 151.353 265.509 153.157C268.668 154.956 270.748 157.968 271.736 162.164H271.98C272.548 160.672 273.339 159.239 274.327 157.835C275.315 156.445 276.541 155.183 278.016 154.084C279.511 152.969 281.248 152.085 283.26 151.432C285.279 150.767 287.56 150.444 290.109 150.444C302.109 150.444 308.109 156.567 308.109 168.812V202.973H317.609V204.711H288.017V202.973H297.511V161.041C297.511 158.248 296.755 156.073 295.225 154.512C293.707 152.949 291.635 152.163 288.992 152.163C286.944 152.163 284.883 152.559 282.833 153.339C280.772 154.121 278.925 155.285 277.284 156.845C275.643 158.415 274.303 160.428 273.279 162.897C272.255 165.367 271.736 168.245 271.736 171.537V202.973H281.231V204.711H251.632V202.973H261.125V162.775C261.125 159.153 260.387 156.481 258.9 154.753C257.425 153.035 255.461 152.163 252.984 152.163C251.265 152.163 249.363 152.603 247.313 153.464C245.264 154.321 243.344 155.677 241.581 157.536C239.807 159.385 238.325 161.787 237.141 164.744C235.947 167.713 235.348 171.324 235.348 175.609V202.973H244.849V204.711H215.245V202.973Z" fill="#171717"/>
<path d="M350.271 123.057C350.271 121.247 350.911 119.716 352.184 118.441C353.459 117.16 354.989 116.527 356.808 116.527C358.611 116.527 360.149 117.16 361.424 118.441C362.711 119.716 363.351 121.247 363.351 123.057C363.351 124.869 362.711 126.405 361.424 127.685C360.149 128.96 358.611 129.601 356.808 129.601C354.989 129.601 353.459 128.96 352.184 127.685C350.911 126.405 350.271 124.869 350.271 123.057ZM325.809 202.972H335.304V153.523H325.809V151.797H345.916V202.972H355.403V204.709H325.809V202.972Z" fill="#171717"/>
<path d="M424.653 178.311C424.653 184.155 425.117 188.793 426.013 192.252C426.923 195.705 428.116 198.361 429.592 200.205C431.075 202.052 432.8 203.272 434.769 203.839C436.752 204.424 438.851 204.709 441.069 204.709C443.283 204.709 445.387 204.424 447.351 203.839C449.337 203.272 451.056 202.052 452.527 200.205C454.016 198.361 455.211 195.705 456.112 192.252C457.016 188.793 457.473 184.155 457.473 178.311C457.473 173.385 457.144 169.244 456.484 165.916C455.827 162.592 454.815 159.873 453.461 157.779C452.1 155.676 450.393 154.188 448.344 153.279C446.283 152.371 443.863 151.92 441.069 151.92C438.265 151.92 435.851 152.371 433.788 153.279C431.735 154.188 430.032 155.676 428.672 157.779C427.317 159.873 426.307 162.592 425.648 165.916C424.988 169.244 424.653 173.385 424.653 178.311ZM412.324 178.311C412.324 174.28 413.22 170.548 414.983 167.093C416.751 163.64 419.007 160.653 421.769 158.152C424.52 155.64 427.599 153.689 431.019 152.285C434.423 150.889 437.777 150.201 441.069 150.201C444.357 150.201 447.703 150.889 451.119 152.285C454.533 153.689 457.619 155.64 460.363 158.152C463.119 160.653 465.381 163.64 467.161 167.093C468.925 170.548 469.801 174.28 469.801 178.311C469.801 182.179 468.98 185.819 467.34 189.221C465.693 192.643 463.521 195.617 460.863 198.167C458.187 200.723 455.131 202.729 451.673 204.215C448.223 205.685 444.679 206.431 441.069 206.431C437.447 206.431 433.917 205.685 430.465 204.215C427.008 202.729 423.945 200.723 421.281 198.167C418.597 195.617 416.433 192.643 414.793 189.221C413.153 185.819 412.324 182.179 412.324 178.311Z" fill="#171717"/>
<path d="M471.913 151.797H501.749V153.523H491.633L507.551 192.252L524.073 153.523H513.957V151.797H532.708V153.523H526.037L502.732 208.777L480.28 153.523H471.913V151.797Z" fill="#171717"/>
<path d="M569.576 174.495H569.333C569.175 175.561 567.808 176.629 565.267 177.697L556.015 181.403C553.387 182.46 551.369 183.964 549.973 185.9C548.576 187.831 547.868 190.233 547.868 193.112C547.868 194.343 548.004 195.617 548.241 196.936C548.491 198.252 548.943 199.423 549.6 200.453C550.259 201.477 551.188 202.319 552.369 202.973C553.564 203.637 555.101 203.96 556.997 203.96C559.711 203.96 561.905 203.393 563.601 202.241C565.279 201.088 566.553 199.649 567.419 197.923C568.284 196.204 568.869 194.332 569.151 192.307C569.437 190.3 569.576 188.471 569.576 186.824V174.495ZM591.164 203.349C590.103 204.173 588.823 204.895 587.347 205.508C585.853 206.125 584.047 206.431 581.913 206.431C577.969 206.431 575.101 205.593 573.339 203.912C571.565 202.228 570.357 199.851 569.699 196.813H569.456C569.133 197.549 568.673 198.484 568.095 199.588C567.516 200.692 566.645 201.772 565.449 202.795C564.253 203.825 562.669 204.68 560.7 205.387C558.729 206.08 556.216 206.431 553.173 206.431C549.721 206.431 546.973 206.039 544.911 205.264C542.861 204.484 541.26 203.516 540.095 202.363C538.947 201.211 538.197 199.924 537.819 198.484C537.448 197.047 537.269 195.705 537.269 194.472C537.269 191.593 537.844 189.288 538.996 187.563C540.137 185.837 541.643 184.452 543.503 183.428C545.344 182.404 547.407 181.563 549.668 180.911C551.917 180.251 554.204 179.556 556.509 178.812C559.223 177.904 561.455 177.128 563.223 176.464C564.991 175.8 566.369 174.996 567.357 174.061C568.339 173.109 569.016 171.921 569.395 170.483C569.76 169.044 569.955 167.093 569.955 164.621C569.955 162.652 569.821 160.889 569.576 159.323C569.333 157.761 568.881 156.427 568.219 155.311C567.565 154.199 566.613 153.357 565.388 152.784C564.151 152.212 562.503 151.92 560.448 151.92C557.748 151.92 555.497 152.396 553.728 153.339C551.967 154.28 551.083 155.821 551.083 157.968C551.083 159.372 551.204 160.737 551.448 162.099C551.697 163.451 551.815 164.457 551.815 165.124C551.815 166.269 551.405 167.237 550.583 168.013C549.765 168.8 548.576 169.188 547.015 169.188C544.283 169.188 542.605 168.689 541.953 167.713C541.295 166.724 540.967 165.445 540.967 163.885C540.967 162.08 541.375 160.347 542.197 158.707C543.027 157.067 544.233 155.596 545.844 154.321C547.448 153.047 549.453 152.041 551.881 151.299C554.308 150.567 557.076 150.201 560.205 150.201C563.987 150.201 567.163 150.657 569.699 151.608C572.248 152.559 574.309 153.833 575.871 155.432C577.432 157.036 578.541 158.843 579.2 160.86C579.859 162.885 580.183 165.001 580.183 167.215V197.923C580.183 200.313 580.567 201.909 581.297 202.729C582.041 203.557 583.108 203.96 584.505 203.96C585.407 203.96 586.36 203.801 587.347 203.472C588.321 203.136 589.275 202.655 590.181 201.997L591.164 203.349Z" fill="#171717"/>
<path d="M406.529 156.973C406.128 155.736 405.459 154.651 404.555 153.712C403.659 152.761 402.505 151.993 401.103 151.364C399.705 150.755 398.068 150.444 396.164 150.444C393.541 150.444 391.305 150.932 389.449 151.919C387.603 152.913 386.017 154.121 384.705 155.555C383.389 156.993 382.359 158.5 381.627 160.061C380.876 161.628 380.345 163.019 380.017 164.252H379.767V151.797H359.919V153.504H369.445V202.968H369.407V202.973H360.267V204.711H389.208V202.973H380.017V174.737C380.017 171.28 380.449 168.213 381.309 165.548C382.169 162.885 383.248 160.591 384.517 158.707C385.792 156.804 387.176 155.364 388.652 154.388C390.128 153.395 391.529 152.913 392.848 152.913C395.72 152.913 397.159 154.224 397.159 156.845C397.159 157.927 397.079 158.743 396.915 159.323C396.749 159.896 396.56 160.409 396.36 160.86C396.152 161.311 395.964 161.773 395.799 162.22C395.64 162.664 395.555 163.269 395.555 163.993C395.555 166.311 397.36 167.463 400.98 167.463C402.628 167.463 404.068 167.005 405.305 166.099C406.529 165.203 407.152 163.384 407.152 160.672C407.152 159.445 406.945 158.212 406.529 156.973Z" fill="#171717"/>
<path d="M496.809 363.796C496.391 353.629 491.888 348.544 483.304 348.544C474.825 348.544 468.088 353.629 465.996 363.796H496.809ZM505.969 392.639C505.969 392.639 502.305 395.893 500.711 397.184C496.095 400.674 491.372 402.509 484.195 402.509C475.221 402.509 467.719 399.888 461.688 394.643C455.653 389.398 452.639 382.903 452.639 375.156C452.639 367.09 455.504 360.351 461.239 354.944C466.971 349.54 474.124 346.836 482.7 346.836C489.776 346.836 495.711 348.51 500.495 351.859C505.28 355.208 507.823 360.292 508.123 365.536C504.981 365.507 465.547 365.593 465.547 365.593C465.547 365.593 464.799 370.78 464.799 373.192C464.799 381.312 466.717 387.563 470.556 391.944C474.392 396.327 481.08 399.448 488.059 399.448C492.045 399.448 495.319 398.223 497.661 396.691C502.972 393.217 504.539 391.413 504.539 391.413L505.969 392.639Z" fill="#171717"/>
<path d="M320.581 363.796C320.163 353.629 315.66 348.544 307.076 348.544C298.597 348.544 291.86 353.629 289.768 363.796H320.581ZM329.741 392.639C329.741 392.639 326.077 395.893 324.483 397.184C319.867 400.674 315.145 402.509 307.967 402.509C298.993 402.509 291.491 399.888 285.46 394.643C279.425 389.398 276.411 382.903 276.411 375.156C276.411 367.09 279.276 360.351 285.011 354.944C290.743 349.54 297.896 346.836 306.472 346.836C313.549 346.836 319.483 348.51 324.267 351.859C329.052 355.208 331.596 360.292 331.895 365.536C328.753 365.507 289.319 365.593 289.319 365.593C289.319 365.593 288.571 370.78 288.571 373.192C288.571 381.312 290.489 387.563 294.328 391.944C298.164 396.327 304.852 399.448 311.831 399.448C315.817 399.448 319.091 398.223 321.433 396.691C326.744 393.217 328.311 391.413 328.311 391.413L329.741 392.639Z" fill="#171717"/>
<path d="M260.267 396.691C257.924 398.223 254.652 399.448 250.665 399.448C245.493 399.448 240.489 397.729 236.68 395.059C236.605 395.005 234.192 393.32 232.693 391.278C229.295 386.643 227.519 380.667 227.519 372.115C227.519 364.532 229.675 358.564 232.965 354.368C236.255 350.173 241.42 348.149 247.403 348.149C250.492 348.149 253.205 348.676 255.251 349.724C257.293 350.773 258.316 352.105 258.316 353.717C258.316 354.284 258.165 354.848 257.868 355.413C256.869 357.188 256.371 358.519 256.371 359.405C256.371 362.795 258.563 364.49 262.952 364.49C267.439 364.49 269.681 362.633 269.681 358.921C269.681 355.615 267.413 352.711 262.877 350.208C258.34 347.708 253.131 346.456 247.249 346.456C243.073 346.456 239.233 347.051 235.699 348.179C231.24 349.469 227.279 351.707 223.845 354.944C218.111 360.351 215.245 367.09 215.245 375.156C215.245 375.173 215.248 375.19 215.248 375.207C215.248 375.225 215.245 375.243 215.245 375.261C215.245 383.007 218.111 389.421 223.845 394.504C226.78 397.108 230.119 399.035 233.852 400.304C237.763 401.761 242.072 402.509 246.8 402.509C253.979 402.509 258.701 400.674 263.317 397.184C264.911 395.893 268.575 392.639 268.575 392.639L267.145 391.413C267.145 391.413 265.579 393.217 260.267 396.691Z" fill="#171717"/>
<path d="M448.452 393.916C448.452 393.916 444.613 398.603 437.395 399.556C433.541 400.065 430.737 397.109 430.04 394.244C429.341 391.38 429.46 384.153 429.46 372.856V350.476H447.881V348.751H429.529L429.46 339.221H426.567C426.567 339.221 425.031 348.351 409.64 348.751H406.343V350.476H417.047V387.778C417.047 394.057 417.373 396.151 419.893 398.739C422.889 400.985 426.368 402.509 431.852 402.509C437.735 402.509 442.368 401.033 446.656 397.886C449.147 396.031 449.788 395.197 449.788 395.197L448.452 393.916Z" fill="#171717"/>
<path d="M562.959 354.773C562.557 353.536 561.887 352.451 560.984 351.512C560.087 350.561 558.933 349.793 557.532 349.164C556.135 348.555 554.496 348.244 552.593 348.244C549.971 348.244 547.733 348.732 545.879 349.719C544.031 350.713 542.445 351.92 541.135 353.353C539.819 354.792 538.787 356.298 538.056 357.861C537.305 359.428 536.775 360.817 536.447 362.051H536.195V349.597H516.348V351.304H525.873V400.768H525.835V400.772H516.696V402.509H545.637V400.772H536.447V372.537C536.447 369.08 536.879 366.012 537.739 363.348C538.599 360.684 539.677 358.39 540.947 356.507C542.221 354.604 543.605 353.163 545.081 352.188C546.557 351.193 547.959 350.713 549.277 350.713C552.149 350.713 553.587 352.024 553.587 354.645C553.587 355.727 553.508 356.543 553.343 357.123C553.179 357.696 552.988 358.208 552.788 358.66C552.581 359.111 552.392 359.572 552.228 360.019C552.068 360.463 551.984 361.068 551.984 361.793C551.984 364.111 553.788 365.263 557.409 365.263C559.057 365.263 560.497 364.805 561.733 363.898C562.959 363.002 563.581 361.184 563.581 358.471C563.581 357.245 563.373 356.012 562.959 354.773Z" fill="#171717"/>
<path d="M396.377 400.744V367.437C396.377 360.497 395.523 355.788 393.812 353.308C390.769 348.931 385.829 346.741 378.988 346.741C371.197 346.741 364.829 349.51 359.891 355.044V347.398L359.101 347.381H357.479C357.299 347.563 355.303 349.507 350.943 350.903C348.729 351.611 345.171 352.247 341.491 352.247C340.584 352.247 340.032 352.247 340.032 352.247V354.012H349.415C349.415 354.015 349.417 354.015 349.417 354.015V400.7H349.397V400.744H340.032V402.509H369.879V400.744H360.317V360.473C360.317 358.578 360.791 356.683 361.743 355.609C364.972 351.985 368.963 350.171 373.715 350.171C378.561 350.171 381.791 352.439 383.408 356.145C384.167 357.878 384.547 363.235 384.547 372.219V400.744H376.295V402.509H404.929V400.744H396.377Z" fill="#171717"/>
<path d="M266.209 35.9947L262.327 29.6373L208.567 47.564L233.367 4.42666L225.997 -4.24502e-06L202.516 40.7547L196.808 12.828L190.359 13.7987L196.355 44.7413L162.947 32.6227L159.936 40.7533L192.533 52.9093L161.599 63.2253L163.096 68.928L191.513 59.8506L171.059 95.3547L177.907 100.899L199.843 62.7386L206.769 98.4786L213.993 96.92L206.027 57.9426L255.172 76.2693L258.185 67.1693L216.241 51.9547L266.209 35.9947Z" fill="#B12698"/>
<path d="M39.1814 81.5507C37.6856 81.5507 36.2512 81.604 34.7923 81.7653C33.472 81.9173 32.5132 82.732 31.1767 82.94C28.148 83.4106 25.7434 84.188 23.2622 86.032C22.3002 86.752 20.9428 87.7147 19.8111 88.096C19.5215 88.368 18.857 88.6467 18.4106 88.96C17.9138 89.3133 17.6111 89.744 17.1065 90.1187C16.5299 90.544 16.2934 90.9213 15.9106 91.484C15.4428 92.172 14.6168 92.8227 14.2476 93.5267C14.0007 93.9973 14.0086 94.5107 13.5966 94.9293C13.3362 95.1907 13.0575 95.2226 12.757 95.4426C12.1195 95.9106 11.8882 96.668 11.4127 97.2547C10.7882 98.02 10.1747 98.3573 9.30591 98.82C8.61005 99.1893 8.23765 99.76 7.63191 100.207C6.56431 100.995 5.57045 101.896 5.07098 103.195C4.78138 103.957 4.42831 104.951 4.02151 105.668C3.71325 106.203 3.17938 106.425 2.91898 106.957C1.74191 109.353 1.31685 112.469 1.07258 115.175C0.979913 116.2 0.591915 117.196 0.453248 118.183C0.278315 119.372 0.297112 120.581 0.225245 121.821C0.115779 123.796 -0.303419 125.98 0.392315 127.889C1.14711 127.927 1.19191 127.821 1.51378 128.515C1.74191 128.992 1.86951 129.441 1.92311 129.981C1.97565 130.549 1.90698 131.136 2.03978 131.631C2.16738 132.117 2.44085 132.492 2.72778 132.921C3.45071 134.011 3.75591 135.032 3.84338 136.368C3.89138 137.035 4.29805 138.879 3.91791 139.296C4.21325 139.521 4.01378 139.933 4.07205 140.311C4.14138 140.72 4.31378 140.841 4.44391 141.216C4.64605 141.815 4.54231 142.529 4.68818 143.143C4.85591 143.844 5.28618 144.339 5.53618 144.973C5.76991 145.547 6.01431 146.14 6.38618 146.684C6.75284 147.24 7.19391 147.629 7.61898 148.081C7.85805 148.336 7.91111 148.756 8.13711 148.996C8.32565 149.195 8.64191 149.277 8.79338 149.431C9.19445 149.84 9.48138 150.56 9.83458 151.012C10.3184 151.641 10.8548 152.205 11.3122 152.803C11.8324 153.483 11.7371 154.261 12.2898 154.928C12.7362 155.46 13.421 155.581 13.8756 156.052C14.2819 156.48 14.5772 157.171 15.0819 157.62C15.7195 158.188 16.7554 158.517 17.4731 159.023C18.0095 159.4 18.6075 159.861 19.16 160.177C19.7788 160.536 20.196 161.156 20.7726 161.475C21.3095 161.767 22.0986 161.82 22.6908 162.179C22.9408 162.329 23.148 162.524 23.4028 162.639C23.8543 162.84 23.6496 162.739 24.1704 162.771C25.1059 162.832 25.6242 163.289 26.41 163.6C27.1382 164.176 27.808 164.06 28.6528 164.235C29.5532 164.421 30.4966 164.909 31.3335 165.257C32.8028 165.875 33.7908 166.175 35.409 166.317C36.7638 166.437 38.281 166.668 39.721 166.317C40.983 166.009 42.3059 165.481 43.6476 165.255C44.5032 165.115 46.1184 165.319 46.809 164.901C46.6548 165.531 46.6523 165.656 46.7772 166.249C46.945 167.072 47.1252 167.452 48.1138 167.471C49.1471 167.495 49.6996 167.369 50.4704 167.163C51.2538 166.948 51.9903 167.008 52.8086 166.932C54.4158 166.783 55.5606 165.581 56.9476 165.013C58.1752 164.513 59.6762 164.392 60.8715 163.833C61.5304 163.525 62.1496 163.303 62.8007 163.027C63.5362 162.712 64.0731 162.221 64.8356 161.973C66.2116 161.52 67.083 160.517 68.1939 159.819C69.2032 159.176 70.4335 158.501 71.5174 158.005C72.0247 157.768 72.6652 157.612 73.1356 157.311C73.6882 156.957 73.919 156.32 74.3471 155.827C75.2158 154.819 75.46 153.769 76.2466 152.784C76.7272 152.181 77.2294 151.501 77.7366 150.9C78.1699 150.38 78.7835 150.069 79.1132 149.444C79.5304 148.669 79.5434 147.667 79.772 146.841C80.0804 145.752 80.3066 145.475 81.0239 144.623C81.5012 144.056 81.5466 143.317 81.8519 142.619C82.2132 141.791 82.7666 140.916 83.0826 140.14C83.2892 139.633 83.6772 138.14 84.3652 138.207C84.4132 136.121 85.1199 134.317 85.2986 132.287C85.5079 129.869 85.8159 127.417 85.9946 124.968C86.1186 123.304 86.2812 121.641 86.3612 119.971C86.3959 119.149 86.4612 118.416 86.2599 117.699C86.0799 117.064 85.9679 116.527 85.9892 115.812C86.0506 114.257 85.4599 112.637 85.1626 111.015C84.8253 109.213 83.9506 108.095 83.1572 106.516C82.8492 105.897 82.6359 105.183 82.3919 104.495C82.1679 103.877 82.0732 102.653 81.5119 102.273C81.2679 102.108 80.9386 102.3 80.6786 102.089C80.3506 101.824 80.5186 101.623 80.3746 101.256C80.0351 100.376 79.3018 99.924 78.7466 99.2787C77.7606 98.1467 77.1496 96.6467 76.0392 95.7347C75.46 95.2587 75.5106 94.948 75.0986 94.332C74.9314 94.0933 74.671 93.9813 74.5012 93.7213C74.1314 93.1707 73.9772 92.748 73.4518 92.244C72.4496 91.2827 71.7086 89.9373 70.319 89.7307C68.9908 89.5307 67.7419 88.784 66.5095 88.3333C66.0256 88.1547 65.3882 87.7347 64.8991 87.424C64.2403 87.0093 63.6455 86.992 62.9679 86.7307C61.8518 86.3027 60.7439 85.4106 59.7054 84.8053C58.6663 84.1986 57.4736 83.4547 56.2939 83.152C55.5554 82.964 54.9204 83.208 54.1923 83.012C53.8496 82.9133 53.507 82.6827 53.1772 82.568C52.8876 82.4693 52.495 82.576 52.208 82.464C51.998 82.3787 51.8199 82.1 51.5835 82.012C51.1559 81.8453 50.5127 81.96 50.0398 81.9386C49.1231 81.8986 48.2199 81.8827 47.3032 81.8587C45.3346 81.808 43.398 81.6213 41.4158 81.6293C40.1991 81.632 38.5652 81.1706 37.4892 81.9386" fill="#4BC4E0"/>
<path d="M179.2 151.397L159.076 130.741C150.093 121.521 135.333 121.324 126.111 130.312C116.887 139.296 116.695 154.055 125.68 163.277L176.915 215.868C177.637 216.609 178.409 217.272 179.2 217.897V151.397Z" fill="#34879C"/>
<path d="M179.2 244.873L127.52 191.433C118.568 182.18 103.809 181.932 94.5559 190.881C85.2999 199.832 85.0532 214.592 94.0026 223.848L176.855 309.521C177.595 310.287 178.387 310.968 179.2 311.609V244.873Z" fill="#34879C"/>
<path d="M179.2 335.759L100.544 255.083C91.5546 245.864 76.7939 245.677 67.5773 254.665C58.3581 263.653 58.171 278.413 67.1586 287.633C67.1586 287.633 178.411 401.613 179.2 402.237V335.759Z" fill="#34879C"/>
</svg>
